<svg id="Layer_1" data-name="Layer 1" xmlns="http://www.w3.org/2000/svg" viewBox="0 0 512 512"><defs><style>.cls-1{fill:#2b374f;}</style></defs><title>ghost-glyph</title><path class="cls-1" d="M256,0C150.13,0,64,86.13,64,192V490.74l8.46,6c9.31,6.8,20.91,15.26,42.68,15.26s33.43-8.46,42.74-15.26c8.23-6,14.17-10.34,27.66-10.34s19.43,4.34,27.66,10.34c9.31,6.8,20.91,15.26,42.74,15.26s33.43-8.46,42.74-15.26c8.23-6,14.17-10.34,27.66-10.34s19.43,4.34,27.66,10.34c9.31,6.8,20.91,15.26,42.74,15.26s33.41-8.45,42.65-15.15l8.61-6.11V192C448,86.13,361.87,0,256,0ZM192,243.2a38.4,38.4,0,1,1,38.4-38.4A38.4,38.4,0,0,1,192,243.2Zm102.4,96a38.4,38.4,0,1,1-76.8,0V313.6a38.4,38.4,0,1,1,76.8,0Zm25.6-96a38.4,38.4,0,1,1,38.4-38.4A38.4,38.4,0,0,1,320,243.2Z"/><path class="cls-1" d="M256,339.2A25.49,25.49,0,0,0,233.95,352a25.39,25.39,0,0,0,44.1,0A25.49,25.49,0,0,0,256,339.2Z"/></svg>